<svg xmlns="http://www.w3.org/2000/svg" xmlns:xlink="http://www.w3.org/1999/xlink" width="180" zoomAndPan="magnify" viewBox="0 0 135 135.000003" height="180" preserveAspectRatio="xMidYMid meet" version="1.0"><defs><g/><clipPath id="236d02d6c5"><path d="M 0.496094 0 L 134.503906 0 L 134.503906 134.007812 L 0.496094 134.007812 Z M 0.496094 0 " clip-rule="nonzero"/></clipPath></defs><g clip-path="url(#236d02d6c5)"><path fill="#ffffff" d="M 0.496094 0 L 134.503906 0 L 134.503906 134.007812 L 0.496094 134.007812 Z M 0.496094 0 " fill-opacity="1" fill-rule="nonzero"/><path fill="#ffffff" d="M 0.496094 0 L 134.503906 0 L 134.503906 134.007812 L 0.496094 134.007812 Z M 0.496094 0 " fill-opacity="1" fill-rule="nonzero"/></g><g fill="#605b54" fill-opacity="1"><g transform="translate(27.679326, 62.53677)"><g><path d="M 0.71875 -6.5625 C 0.71875 -6.882812 0.59375 -7.046875 0.34375 -7.046875 L 0.34375 -7.234375 L 1.28125 -7.234375 L 1.28125 -2.296875 C 1.28125 -1.898438 1.359375 -1.550781 1.515625 -1.25 C 1.671875 -0.945312 1.882812 -0.707031 2.15625 -0.53125 C 2.4375 -0.351562 2.753906 -0.265625 3.109375 -0.265625 C 3.472656 -0.265625 3.820312 -0.332031 4.15625 -0.46875 C 4.5 -0.613281 4.804688 -0.804688 5.078125 -1.046875 C 5.347656 -1.285156 5.554688 -1.5625 5.703125 -1.875 L 5.703125 -6.5625 C 5.703125 -6.882812 5.578125 -7.046875 5.328125 -7.046875 L 5.328125 -7.234375 L 6.265625 -7.234375 L 6.265625 -0.75 C 6.265625 -0.488281 6.351562 -0.359375 6.53125 -0.359375 C 6.550781 -0.359375 6.585938 -0.363281 6.640625 -0.375 L 6.640625 -0.1875 C 6.628906 -0.1875 6.59375 -0.175781 6.53125 -0.15625 C 6.46875 -0.144531 6.40625 -0.128906 6.34375 -0.109375 C 6.289062 -0.0976562 6.265625 -0.0859375 6.265625 -0.078125 L 5.984375 0 L 5.703125 0 L 5.703125 -1.609375 C 5.546875 -1.273438 5.316406 -0.976562 5.015625 -0.71875 C 4.722656 -0.46875 4.390625 -0.269531 4.015625 -0.125 C 3.648438 0.0195312 3.273438 0.09375 2.890625 0.09375 C 2.460938 0.09375 2.085938 -0.00390625 1.765625 -0.203125 C 1.441406 -0.410156 1.1875 -0.691406 1 -1.046875 C 0.8125 -1.410156 0.71875 -1.828125 0.71875 -2.296875 Z M 0.71875 -6.5625 "/></g></g></g><g fill="#605b54" fill-opacity="1"><g transform="translate(42.507658, 62.53677)"><g><path d="M 0.921875 -6.6875 C 0.691406 -6.925781 0.472656 -7.046875 0.265625 -7.046875 L 0.28125 -7.234375 L 1.203125 -7.234375 L 6.46875 -0.890625 L 6.46875 -6.5625 C 6.46875 -6.882812 6.335938 -7.046875 6.078125 -7.046875 L 6.078125 -7.234375 L 7 -7.234375 L 7 -7.046875 C 6.75 -7.046875 6.625 -6.882812 6.625 -6.5625 L 6.59375 0 L 6.46875 0 C 5.5625 -1.082031 4.65625 -2.171875 3.75 -3.265625 C 2.851562 -4.359375 1.957031 -5.445312 1.0625 -6.53125 L 1.078125 -0.671875 C 1.078125 -0.347656 1.203125 -0.1875 1.453125 -0.1875 L 1.453125 0 L 0.546875 0 L 0.546875 -0.1875 C 0.796875 -0.1875 0.921875 -0.347656 0.921875 -0.671875 Z M 0.921875 -6.6875 "/></g></g></g><g fill="#605b54" fill-opacity="1"><g transform="translate(57.991822, 62.53677)"><g><path d="M 0.734375 -7.234375 L 2.046875 -7.234375 L 2.046875 -7.046875 C 1.796875 -7.046875 1.671875 -6.882812 1.671875 -6.5625 L 1.671875 -0.671875 C 1.671875 -0.347656 1.796875 -0.1875 2.046875 -0.1875 L 2.046875 0 L 0.734375 0 L 0.734375 -0.1875 C 0.984375 -0.1875 1.109375 -0.347656 1.109375 -0.671875 L 1.109375 -6.5625 C 1.109375 -6.882812 0.984375 -7.046875 0.734375 -7.046875 Z M 0.734375 -7.234375 "/></g></g></g><g fill="#605b54" fill-opacity="1"><g transform="translate(68.528309, 62.53677)"><g><path d="M 7.8125 -7.09375 C 7.863281 -6.976562 7.914062 -6.847656 7.96875 -6.703125 C 8.019531 -6.566406 8.070312 -6.441406 8.125 -6.328125 L 7.953125 -6.328125 L 7.875 -6.453125 C 7.726562 -6.640625 7.53125 -6.789062 7.28125 -6.90625 C 7.039062 -7.03125 6.800781 -7.09375 6.5625 -7.09375 L 4.453125 -7.09375 L 4.453125 -0.6875 C 4.453125 -0.363281 4.578125 -0.203125 4.828125 -0.203125 L 4.828125 -0.015625 L 3.515625 -0.015625 L 3.515625 -0.203125 C 3.765625 -0.203125 3.890625 -0.363281 3.890625 -0.6875 L 3.890625 -7.09375 L 1.78125 -7.09375 C 1.539062 -7.09375 1.296875 -7.03125 1.046875 -6.90625 C 0.804688 -6.789062 0.613281 -6.640625 0.46875 -6.453125 L 0.390625 -6.328125 L 0.21875 -6.328125 C 0.269531 -6.441406 0.320312 -6.570312 0.375 -6.71875 C 0.4375 -6.863281 0.492188 -7 0.546875 -7.125 L 0.515625 -7.171875 C 0.515625 -7.179688 0.515625 -7.191406 0.515625 -7.203125 C 0.523438 -7.210938 0.535156 -7.222656 0.546875 -7.234375 L 0.546875 -7.25 L 7.828125 -7.25 L 7.828125 -7.21875 L 7.8125 -7.25 Z M 7.8125 -7.09375 "/></g></g></g><g fill="#605b54" fill-opacity="1"><g transform="translate(84.764753, 62.53677)"><g><path d="M 4.734375 -2.859375 L 4.703125 -2.984375 C 4.628906 -3.191406 4.5 -3.363281 4.3125 -3.5 C 4.125 -3.644531 3.914062 -3.71875 3.6875 -3.71875 L 1.625 -3.71875 L 1.625 -0.765625 C 1.625 -0.546875 1.664062 -0.367188 1.75 -0.234375 C 1.84375 -0.0976562 2.054688 -0.03125 2.390625 -0.03125 L 4.296875 -0.03125 C 4.585938 -0.03125 4.859375 -0.0859375 5.109375 -0.203125 C 5.367188 -0.328125 5.546875 -0.484375 5.640625 -0.671875 L 5.703125 -0.796875 L 5.859375 -0.796875 C 5.835938 -0.679688 5.8125 -0.546875 5.78125 -0.390625 C 5.757812 -0.242188 5.742188 -0.117188 5.734375 -0.015625 L 5.71875 -0.015625 L 5.71875 0 L 0.484375 0 L 0.484375 -0.1875 L 0.578125 -0.1875 C 0.722656 -0.1875 0.835938 -0.25 0.921875 -0.375 C 1.015625 -0.5 1.0625 -0.664062 1.0625 -0.875 L 1.0625 -6.359375 C 1.0625 -6.554688 1.015625 -6.71875 0.921875 -6.84375 C 0.835938 -6.976562 0.722656 -7.046875 0.578125 -7.046875 L 0.484375 -7.046875 L 0.484375 -7.234375 L 5.484375 -7.234375 L 5.484375 -7.21875 C 5.492188 -7.101562 5.507812 -6.957031 5.53125 -6.78125 C 5.550781 -6.613281 5.566406 -6.46875 5.578125 -6.34375 L 5.421875 -6.34375 L 5.359375 -6.46875 C 5.273438 -6.6875 5.128906 -6.863281 4.921875 -7 C 4.710938 -7.132812 4.492188 -7.203125 4.265625 -7.203125 L 1.625 -7.203125 L 1.625 -3.75 L 3.6875 -3.75 C 3.914062 -3.75 4.125 -3.816406 4.3125 -3.953125 C 4.5 -4.097656 4.628906 -4.273438 4.703125 -4.484375 L 4.734375 -4.609375 L 4.90625 -4.609375 L 4.90625 -2.859375 Z M 4.734375 -2.859375 "/></g></g></g><g fill="#605b54" fill-opacity="1"><g transform="translate(98.860097, 62.53677)"><g><path d="M 0.6875 -7.234375 L 3.296875 -7.234375 C 4.285156 -7.234375 5.125 -7.078125 5.8125 -6.765625 C 6.5 -6.453125 7.019531 -6.023438 7.375 -5.484375 C 7.738281 -4.941406 7.921875 -4.316406 7.921875 -3.609375 C 7.921875 -3.035156 7.789062 -2.523438 7.53125 -2.078125 C 7.269531 -1.628906 6.90625 -1.25 6.4375 -0.9375 C 5.976562 -0.632812 5.429688 -0.398438 4.796875 -0.234375 C 4.171875 -0.078125 3.484375 0 2.734375 0 L 0.6875 0 L 0.6875 -0.1875 C 0.9375 -0.1875 1.0625 -0.347656 1.0625 -0.671875 L 1.0625 -6.5625 C 1.0625 -6.882812 0.9375 -7.046875 0.6875 -7.046875 Z M 1.625 -7.203125 L 1.625 -0.765625 C 1.625 -0.628906 1.644531 -0.503906 1.6875 -0.390625 C 1.738281 -0.273438 1.84375 -0.1875 2 -0.125 C 2.15625 -0.0625 2.382812 -0.03125 2.6875 -0.03125 C 3.351562 -0.03125 3.96875 -0.109375 4.53125 -0.265625 C 5.09375 -0.421875 5.578125 -0.648438 5.984375 -0.953125 C 6.398438 -1.265625 6.722656 -1.644531 6.953125 -2.09375 C 7.179688 -2.539062 7.296875 -3.046875 7.296875 -3.609375 C 7.296875 -4.304688 7.132812 -4.925781 6.8125 -5.46875 C 6.488281 -6.007812 6.019531 -6.429688 5.40625 -6.734375 C 4.800781 -7.046875 4.0625 -7.203125 3.1875 -7.203125 Z M 1.625 -7.203125 "/></g></g></g><g fill="#605b54" fill-opacity="1"><g transform="translate(26.364844, 77.426476)"><g><path d="M 7.453125 0 L 6.140625 0 L 6.140625 -0.1875 C 6.390625 -0.1875 6.515625 -0.347656 6.515625 -0.671875 L 6.515625 -3.6875 L 1.96875 -3.6875 L 1.96875 -0.671875 C 1.96875 -0.347656 2.09375 -0.1875 2.34375 -0.1875 L 2.34375 0 L 1.03125 0 L 1.03125 -0.1875 C 1.28125 -0.1875 1.40625 -0.347656 1.40625 -0.671875 L 1.40625 -6.5625 C 1.40625 -6.882812 1.28125 -7.046875 1.03125 -7.046875 L 1.03125 -7.234375 L 2.34375 -7.234375 L 2.34375 -7.046875 C 2.09375 -7.046875 1.96875 -6.882812 1.96875 -6.5625 L 1.96875 -3.734375 L 6.515625 -3.734375 L 6.515625 -6.5625 C 6.515625 -6.882812 6.390625 -7.046875 6.140625 -7.046875 L 6.140625 -7.234375 L 7.453125 -7.234375 L 7.453125 -7.046875 C 7.203125 -7.046875 7.078125 -6.882812 7.078125 -6.5625 L 7.078125 -0.671875 C 7.078125 -0.347656 7.203125 -0.1875 7.453125 -0.1875 Z M 7.453125 0 "/></g></g></g><g fill="#605b54" fill-opacity="1"><g transform="translate(42.302304, 77.426476)"><g><path d="M 4.734375 -2.859375 L 4.703125 -2.984375 C 4.628906 -3.191406 4.5 -3.363281 4.3125 -3.5 C 4.125 -3.644531 3.914062 -3.71875 3.6875 -3.71875 L 1.625 -3.71875 L 1.625 -0.765625 C 1.625 -0.546875 1.664062 -0.367188 1.75 -0.234375 C 1.84375 -0.0976562 2.054688 -0.03125 2.390625 -0.03125 L 4.296875 -0.03125 C 4.585938 -0.03125 4.859375 -0.0859375 5.109375 -0.203125 C 5.367188 -0.328125 5.546875 -0.484375 5.640625 -0.671875 L 5.703125 -0.796875 L 5.859375 -0.796875 C 5.835938 -0.679688 5.8125 -0.546875 5.78125 -0.390625 C 5.757812 -0.242188 5.742188 -0.117188 5.734375 -0.015625 L 5.71875 -0.015625 L 5.71875 0 L 0.484375 0 L 0.484375 -0.1875 L 0.578125 -0.1875 C 0.722656 -0.1875 0.835938 -0.25 0.921875 -0.375 C 1.015625 -0.5 1.0625 -0.664062 1.0625 -0.875 L 1.0625 -6.359375 C 1.0625 -6.554688 1.015625 -6.71875 0.921875 -6.84375 C 0.835938 -6.976562 0.722656 -7.046875 0.578125 -7.046875 L 0.484375 -7.046875 L 0.484375 -7.234375 L 5.484375 -7.234375 L 5.484375 -7.21875 C 5.492188 -7.101562 5.507812 -6.957031 5.53125 -6.78125 C 5.550781 -6.613281 5.566406 -6.46875 5.578125 -6.34375 L 5.421875 -6.34375 L 5.359375 -6.46875 C 5.273438 -6.6875 5.128906 -6.863281 4.921875 -7 C 4.710938 -7.132812 4.492188 -7.203125 4.265625 -7.203125 L 1.625 -7.203125 L 1.625 -3.75 L 3.6875 -3.75 C 3.914062 -3.75 4.125 -3.816406 4.3125 -3.953125 C 4.5 -4.097656 4.628906 -4.273438 4.703125 -4.484375 L 4.734375 -4.609375 L 4.90625 -4.609375 L 4.90625 -2.859375 Z M 4.734375 -2.859375 "/></g></g></g><g fill="#605b54" fill-opacity="1"><g transform="translate(56.397647, 77.426476)"><g><path d="M 5 0 L 5 -0.234375 L 5.125 -0.234375 C 5.3125 -0.234375 5.429688 -0.328125 5.484375 -0.515625 C 5.546875 -0.703125 5.523438 -0.929688 5.421875 -1.203125 L 4.828125 -2.84375 L 1.75 -2.84375 L 1.078125 -1.125 C 0.992188 -0.863281 0.976562 -0.648438 1.03125 -0.484375 C 1.09375 -0.316406 1.210938 -0.234375 1.390625 -0.234375 L 1.515625 -0.234375 L 1.515625 0 L -0.15625 0 L -0.15625 -0.234375 L -0.03125 -0.234375 C 0.175781 -0.234375 0.378906 -0.316406 0.578125 -0.484375 C 0.773438 -0.648438 0.929688 -0.863281 1.046875 -1.125 L 3.3125 -6.96875 L 3.28125 -7.0625 C 3.40625 -7.082031 3.5 -7.125 3.5625 -7.1875 C 3.632812 -7.257812 3.664062 -7.335938 3.65625 -7.421875 L 3.71875 -7.421875 C 3.726562 -7.421875 3.742188 -7.390625 3.765625 -7.328125 C 3.785156 -7.273438 3.800781 -7.21875 3.8125 -7.15625 C 3.832031 -7.09375 3.84375 -7.0625 3.84375 -7.0625 L 6.015625 -1.203125 C 6.109375 -0.929688 6.226562 -0.703125 6.375 -0.515625 C 6.519531 -0.328125 6.648438 -0.234375 6.765625 -0.234375 L 6.84375 -0.234375 L 6.84375 0 Z M 3.328125 -6.921875 L 1.765625 -2.890625 L 4.8125 -2.890625 Z M 3.328125 -6.921875 "/></g></g></g><g fill="#605b54" fill-opacity="1"><g transform="translate(71.235622, 77.426476)"><g><path d="M 2 0 L 0.6875 0 L 0.6875 -0.1875 C 0.9375 -0.1875 1.0625 -0.347656 1.0625 -0.671875 L 1.0625 -6.5625 C 1.0625 -6.882812 0.9375 -7.046875 0.6875 -7.046875 L 0.671875 -7.234375 L 3.796875 -7.234375 C 4.242188 -7.234375 4.640625 -7.144531 4.984375 -6.96875 C 5.328125 -6.800781 5.59375 -6.5625 5.78125 -6.25 C 5.976562 -5.945312 6.078125 -5.597656 6.078125 -5.203125 C 6.078125 -4.722656 5.914062 -4.347656 5.59375 -4.078125 C 5.28125 -3.804688 4.863281 -3.632812 4.34375 -3.5625 C 4.445312 -3.375 4.632812 -3.03125 4.90625 -2.53125 C 5.175781 -2.039062 5.5 -1.453125 5.875 -0.765625 C 5.976562 -0.566406 6.070312 -0.421875 6.15625 -0.328125 C 6.238281 -0.234375 6.335938 -0.171875 6.453125 -0.140625 C 6.578125 -0.117188 6.757812 -0.109375 7 -0.109375 L 7 0 C 6.6875 0 6.429688 -0.00390625 6.234375 -0.015625 C 6.046875 -0.0351562 5.894531 -0.0664062 5.78125 -0.109375 C 5.664062 -0.160156 5.566406 -0.238281 5.484375 -0.34375 C 5.398438 -0.445312 5.304688 -0.585938 5.203125 -0.765625 C 4.960938 -1.222656 4.742188 -1.640625 4.546875 -2.015625 C 4.347656 -2.390625 4.179688 -2.707031 4.046875 -2.96875 C 3.910156 -3.226562 3.820312 -3.410156 3.78125 -3.515625 L 1.625 -3.515625 L 1.625 -0.671875 C 1.625 -0.347656 1.75 -0.1875 2 -0.1875 Z M 1.609375 -3.671875 L 3.796875 -3.671875 C 4.273438 -3.671875 4.671875 -3.804688 4.984375 -4.078125 C 5.296875 -4.359375 5.453125 -4.773438 5.453125 -5.328125 C 5.453125 -5.671875 5.375 -5.976562 5.21875 -6.25 C 5.0625 -6.519531 4.84375 -6.726562 4.5625 -6.875 C 4.289062 -7.03125 3.976562 -7.109375 3.625 -7.109375 L 1.609375 -7.109375 Z M 1.609375 -3.671875 "/></g></g></g><g fill="#605b54" fill-opacity="1"><g transform="translate(86.237558, 77.426476)"><g><path d="M 7.8125 -7.09375 C 7.863281 -6.976562 7.914062 -6.847656 7.96875 -6.703125 C 8.019531 -6.566406 8.070312 -6.441406 8.125 -6.328125 L 7.953125 -6.328125 L 7.875 -6.453125 C 7.726562 -6.640625 7.53125 -6.789062 7.28125 -6.90625 C 7.039062 -7.03125 6.800781 -7.09375 6.5625 -7.09375 L 4.453125 -7.09375 L 4.453125 -0.6875 C 4.453125 -0.363281 4.578125 -0.203125 4.828125 -0.203125 L 4.828125 -0.015625 L 3.515625 -0.015625 L 3.515625 -0.203125 C 3.765625 -0.203125 3.890625 -0.363281 3.890625 -0.6875 L 3.890625 -7.09375 L 1.78125 -7.09375 C 1.539062 -7.09375 1.296875 -7.03125 1.046875 -6.90625 C 0.804688 -6.789062 0.613281 -6.640625 0.46875 -6.453125 L 0.390625 -6.328125 L 0.21875 -6.328125 C 0.269531 -6.441406 0.320312 -6.570312 0.375 -6.71875 C 0.4375 -6.863281 0.492188 -7 0.546875 -7.125 L 0.515625 -7.171875 C 0.515625 -7.179688 0.515625 -7.191406 0.515625 -7.203125 C 0.523438 -7.210938 0.535156 -7.222656 0.546875 -7.234375 L 0.546875 -7.25 L 7.828125 -7.25 L 7.828125 -7.21875 L 7.8125 -7.25 Z M 7.8125 -7.09375 "/></g></g></g><g fill="#605b54" fill-opacity="1"><g transform="translate(102.474002, 77.426476)"><g><path d="M 3.8125 -7.21875 C 3.9375 -7.175781 4.0625 -7.125 4.1875 -7.0625 C 4.3125 -7.007812 4.429688 -6.957031 4.546875 -6.90625 L 4.546875 -6.921875 C 4.773438 -6.796875 4.941406 -6.734375 5.046875 -6.734375 C 5.078125 -6.734375 5.097656 -6.742188 5.109375 -6.765625 L 5.15625 -6.8125 L 5.328125 -6.8125 L 5.328125 -5.78125 L 5.109375 -5.78125 L 5.015625 -5.984375 C 4.890625 -6.304688 4.707031 -6.5625 4.46875 -6.75 C 4.226562 -6.9375 3.957031 -7.070312 3.65625 -7.15625 C 3.363281 -7.238281 3.054688 -7.28125 2.734375 -7.28125 C 2.421875 -7.28125 2.144531 -7.210938 1.90625 -7.078125 C 1.664062 -6.953125 1.476562 -6.773438 1.34375 -6.546875 C 1.207031 -6.316406 1.140625 -6.050781 1.140625 -5.75 C 1.140625 -5.550781 1.351562 -5.285156 1.78125 -4.953125 C 2.207031 -4.617188 2.8125 -4.269531 3.59375 -3.90625 C 4.28125 -3.582031 4.8125 -3.222656 5.1875 -2.828125 C 5.5625 -2.441406 5.75 -2.082031 5.75 -1.75 C 5.75 -1.394531 5.648438 -1.078125 5.453125 -0.796875 C 5.253906 -0.515625 4.976562 -0.289062 4.625 -0.125 C 4.269531 0.03125 3.867188 0.109375 3.421875 0.109375 C 3.046875 0.109375 2.679688 0.0546875 2.328125 -0.046875 C 1.972656 -0.160156 1.65625 -0.304688 1.375 -0.484375 C 1.1875 -0.597656 1.023438 -0.65625 0.890625 -0.65625 C 0.796875 -0.65625 0.738281 -0.625 0.71875 -0.5625 L 0.6875 -0.453125 L 0.515625 -0.453125 L 0.515625 -1.828125 L 0.734375 -1.828125 L 0.8125 -1.59375 C 1.03125 -1.050781 1.378906 -0.640625 1.859375 -0.359375 C 2.335938 -0.0859375 2.859375 0.046875 3.421875 0.046875 C 3.785156 0.046875 4.109375 -0.0195312 4.390625 -0.15625 C 4.671875 -0.300781 4.890625 -0.5 5.046875 -0.75 C 5.210938 -1 5.296875 -1.28125 5.296875 -1.59375 C 5.296875 -1.8125 5.113281 -2.078125 4.75 -2.390625 C 4.394531 -2.703125 3.894531 -3.007812 3.25 -3.3125 C 2.4375 -3.695312 1.804688 -4.085938 1.359375 -4.484375 C 0.921875 -4.890625 0.703125 -5.25 0.703125 -5.5625 C 0.703125 -5.90625 0.785156 -6.207031 0.953125 -6.46875 C 1.128906 -6.738281 1.367188 -6.945312 1.671875 -7.09375 C 1.984375 -7.25 2.335938 -7.328125 2.734375 -7.328125 C 3.097656 -7.328125 3.457031 -7.28125 3.8125 -7.1875 Z M 3.8125 -7.21875 "/></g></g></g></svg>